GIL04_fast2_RRA_states
nRows=6
nColumns=47

# SIMM Motion File Header:
name GIL04_fast2_RRA_states
datacolumns 47
datarows 6
otherdata 1
range 0.11833000000000000000 0.11833031000000001000
endheader
time	pelvis_tx	pelvis_ty	pelvis_tz	pelvis_tilt	pelvis_list	pelvis_rotation	hip_flexion_r	hip_adduction_r	hip_rotation_r	knee_angle_r	ankle_angle_r	subtalar_angle_r	mtp_angle_r	hip_flexion_l	hip_adduction_l	hip_rotation_l	knee_angle_l	ankle_angle_l	subtalar_angle_l	mtp_angle_l	lumbar_extension	lumbar_bending	lumbar_rotation	pelvis_tx_u	pelvis_ty_u	pelvis_tz_u	pelvis_tilt_u	pelvis_list_u	pelvis_rotation_u	hip_flexion_r_u	hip_adduction_r_u	hip_rotation_r_u	knee_angle_r_u	ankle_angle_r_u	subtalar_angle_r_u	mtp_angle_r_u	hip_flexion_l_u	hip_adduction_l_u	hip_rotation_l_u	knee_angle_l_u	ankle_angle_l_u	subtalar_angle_l_u	mtp_angle_l_u	lumbar_extension_u	lumbar_bending_u	lumbar_rotation_u
      0.11833000000000000000	      1.24935234588516720000	      0.70549886243909887000	     -0.17411687607640350000	     -2.35651349508041270000	     -7.56607873901904160000	     -0.41576902841775215000	     31.60139282674598600000	     11.30576017882611400000	      3.89316276142609040000	    -31.60665810532004400000	      2.57627463645258010000	      0.00000000000000000000	      0.00000000000000000000	    -13.96938538218417500000	     -8.49296315230490430000	    -11.08260584283578400000	    -39.61397136576668000000	    -26.92849351482732300000	      0.00000000000000000000	      0.00000000000000000000	     -0.93052903099326101000	     10.56501920502868500000	      0.36197742736140925000	      1.32904588806081510000	      0.22571353586577550000	      0.01770933760260573500	    -17.04819907435048200000	    -20.13951789736664800000	     16.72120835021899100000	   -101.30516048851383000000	     36.68776122561908400000	      1.08647392392628020000	     -1.34541947606984040000	    104.66696409384855000000	      0.00000000000000000000	      0.00000000000000000000	    290.84027242115815000000	    -66.95006245850849800000	    -27.66048108057636800000	   -431.18362865029673000000	    -78.43555867731360800000	      0.00000000000000000000	      0.00000000000000000000	      9.54104525222241760000	     32.22694980392588300000	    -16.16140840618165300000
      0.11833001000000000000	      1.24935235917562590000	      0.70549886469623435000	     -0.17411687589931019000	     -2.35651366556241240000	     -7.56607894041419370000	     -0.41576886120568241000	     31.60139181369436700000	     11.30576054570369500000	      3.89316277229085150000	    -31.60665811877418100000	      2.57627568312206860000	     -0.00000000000000000000	     -0.00000000000000000000	    -13.96938247378142100000	     -8.49296382180548190000	    -11.08260611944062600000	    -39.61397567760291600000	    -26.92849429918273400000	      0.00000000000000000000	     -0.00000000000000000000	     -0.93052893558281113000	     10.56501952729815800000	      0.36197726574734296000	      1.32904584731769140000	      0.22571356025367478000	      0.01770932538103605100	    -17.04820082577554500000	    -20.13951257770743200000	     16.72120560672421200000	   -101.30516376689665000000	     36.68775506685961600000	      1.08647827051011700000	     -1.34540707531418890000	    104.66693351562051000000	     -0.00000000000000000046	     -0.00000000000000000051	    290.84027848448420000000	    -66.95005322602145300000	    -27.66048718469553300000	   -431.18361843770032000000	    -78.43552314614304100000	      0.00000000000000000002	     -0.00000000000000000003	      9.54104471691337790000	     32.22694511831696900000	    -16.16140485967092700000
      0.11833003000000000000	      1.24935238575654210000	      0.70549886921050609000	     -0.17411687554512392000	     -2.35651400652646400000	     -7.56607934320433980000	     -0.41576852678162513000	     31.60138978759102500000	     11.30576127945867300000	      3.89316279402050380000	    -31.60665814568207200000	      2.57627777646012750000	     -0.00000000000000000000	     -0.00000000000000000000	    -13.96937665697572900000	     -8.49296516080636190000	    -11.08260667265049200000	    -39.61398430127508200000	    -26.92849586789248700000	      0.00000000000000000000	     -0.00000000000000000000	     -0.93052874476192748000	     10.56502017183696700000	      0.36197694251931672000	      1.32904576583148270000	      0.22571360902950702000	      0.01770930093789166400	    -17.04820432859210700000	    -20.13950193838899200000	     16.72120011974091700000	   -101.30517032371172000000	     36.68774274934635600000	      1.08648696369714150000	     -1.34538227381501940000	    104.66687235990673000000	     -0.00000000000000000063	     -0.00000000000000000075	    290.84029061108174000000	    -66.95003476104226100000	    -27.66049939292700400000	   -431.18359801246936000000	    -78.43545208380280100000	     -0.00000000000000000003	     -0.00000000000000000009	      9.54104364626239310000	     32.22693574709858000000	    -16.16139776665135100000
      0.11833007000000001000	      1.24935243891836940000	      0.70549887823905244000	     -0.17411687483675287000	     -2.35651468845477740000	     -7.56608014878399170000	     -0.41576785793383986000	     31.60138573538394600000	     11.30576274696789000000	      3.89316283748032980000	    -31.60665819949637300000	      2.57628196313257530000	      0.00000000000000000000	     -0.00000000000000000000	    -13.96936502336362000000	     -8.49296783880701330000	    -11.08260777907095700000	    -39.61400154861818400000	    -26.92849900530772800000	     -0.00000000000000000000	     -0.00000000000000000000	     -0.93052836312022447000	     10.56502146091402300000	      0.36197629606368981000	      1.32904560285921990000	      0.22571370658130624000	      0.01770925205158281300	    -17.04821133409100800000	    -20.13948065975207800000	     16.72118914579937200000	   -101.30518343753943000000	     36.68771811434254500000	      1.08650435014859310000	     -1.34533267086521360000	    104.66675005144818000000	      0.00000000000000000167	     -0.00000000000000000278	    290.84031486405871000000	    -66.94999783106354100000	    -27.66052380936248800000	   -431.18355716185494000000	    -78.43530995912590200000	     -0.00000000000000000017	     -0.00000000000000000012	      9.54104150482880800000	     32.22691700465955500000	    -16.16138358061968100000
      0.11833015000000001000	      1.24935254524200470000	      0.70549889629615681000	     -0.17411687342001661000	     -2.35651605231224480000	     -7.56608175994074190000	     -0.41576652023958610000	     31.60137763096821900000	     11.30576568198336900000	      3.89316292440206890000	    -31.60665830711901200000	      2.57629033646279510000	     -0.00000000000000000000	      0.00000000000000000000	    -13.96934175613649000000	     -8.49297319480388600000	    -11.08260999191481300000	    -39.61403604329948500000	    -26.92850528012115400000	     -0.00000000000000000000	     -0.00000000000000000000	     -0.93052759983707545000	     10.56502403906588400000	      0.36197500315413822000	      1.32904527691531290000	      0.22571390168544364000	      0.01770915427888479500	    -17.04822534455191300000	    -20.13943810247812400000	     16.72116719801644500000	   -101.30520966598519000000	     36.68766884442577900000	      1.08653912336110880000	     -1.34523346515973130000	    104.66650544640711000000	     -0.00000000000000000081	      0.00000000000000000597	    290.84036336913988000000	    -66.94992397102470200000	    -27.66057264212361500000	   -431.18347546001610000000	    -78.43502570978641600000	      0.00000000000000000012	     -0.00000000000000000054	      9.54103722143515750000	     32.22687951977255200000	    -16.16135520858628600000
      0.11833031000000001000	      1.24935275788919680000	      0.70549893241041228000	     -0.17411687058656758000	     -2.35651878003054140000	     -7.56608498224403010000	     -0.41576384485634604000	     31.60136142213047300000	     11.30577155200250100000	      3.89316309825389210000	    -31.60665852234049600000	      2.57630708306453250000	     -0.00000000000000000000	      0.00000000000000000000	    -13.96929522167059200000	     -8.49298390677990330000	    -11.08261441761425000000	    -39.61410503264249200000	    -26.92851782967978700000	      0.00000000000000000000	     -0.00000000000000000000	     -0.93052607327180559000	     10.56502919536060900000	      0.36197241734184432000	      1.32904462502997260000	      0.22571429189587422000	      0.01770895873316749900	    -17.04825336332611800000	    -20.13935298792972300000	     16.72112330285126100000	   -101.30526212603822000000	     36.68757030495564900000	      1.08660867102460060000	     -1.34503505452524740000	    104.66601628382931000000	     -0.00000000000000001937	     -0.00000000000000000038	    290.84046037581140000000	    -66.94977625062138300000	    -27.66067030720653400000	   -431.18331205389819000000	    -78.43445721116469800000	     -0.00000000000000000029	     -0.00000000000000000030	      9.54102865254194830000	     32.22680454996270100000	    -16.16129846463925900000
